<mxfile host="app.diagrams.net" modified="2023-10-05T12:00:12.824Z" agent="Mozilla/5.0 (Windows NT 10.0; Win64; x64) AppleWebKit/537.36 (KHTML, like Gecko) Chrome/117.0.0.0 Safari/537.36" etag="L8T-OsEK1KnaedtAnSIB" version="21.6.9" type="github">
  <diagram name="Page-1" id="ggFPVMbfNp3eFGUEYm6P">
    <mxGraphModel dx="880" dy="446" grid="1" gridSize="10" guides="1" tooltips="1" connect="1" arrows="1" fold="1" page="1" pageScale="1" pageWidth="850" pageHeight="1100" math="0" shadow="0">
      <root>
        <mxCell id="0" />
        <mxCell id="1" parent="0" />
        <mxCell id="oBUEAxmH5nwpYUDOAiNG-1" value="" style="sketch=0;points=[[0,0,0],[0.25,0,0],[0.5,0,0],[0.75,0,0],[1,0,0],[0,1,0],[0.25,1,0],[0.5,1,0],[0.75,1,0],[1,1,0],[0,0.25,0],[0,0.5,0],[0,0.75,0],[1,0.25,0],[1,0.5,0],[1,0.75,0]];outlineConnect=0;fontColor=#232F3E;gradientColor=#60A337;gradientDirection=north;fillColor=#277116;strokeColor=#ffffff;dashed=0;verticalLabelPosition=bottom;verticalAlign=top;align=center;html=1;fontSize=12;fontStyle=0;aspect=fixed;shape=mxgraph.aws4.resourceIcon;resIcon=mxgraph.aws4.s3;" vertex="1" parent="1">
          <mxGeometry x="550" y="320" width="78" height="78" as="geometry" />
        </mxCell>
        <mxCell id="oBUEAxmH5nwpYUDOAiNG-2" value="" style="edgeStyle=orthogonalEdgeStyle;html=1;endArrow=block;elbow=vertical;startArrow=block;startFill=1;endFill=1;strokeColor=#545B64;rounded=0;" edge="1" parent="1">
          <mxGeometry width="100" relative="1" as="geometry">
            <mxPoint x="410" y="359" as="sourcePoint" />
            <mxPoint x="560" y="358.5" as="targetPoint" />
          </mxGeometry>
        </mxCell>
        <mxCell id="oBUEAxmH5nwpYUDOAiNG-4" value="CloudFront- with secured url" style="text;html=1;align=center;verticalAlign=middle;resizable=0;points=[];autosize=1;strokeColor=none;fillColor=none;" vertex="1" parent="1">
          <mxGeometry x="301" y="390" width="170" height="30" as="geometry" />
        </mxCell>
        <mxCell id="oBUEAxmH5nwpYUDOAiNG-5" value="S3 Bucket- Enabled Static Hosting&lt;br&gt;with unsecured url" style="text;html=1;align=center;verticalAlign=middle;resizable=0;points=[];autosize=1;strokeColor=none;fillColor=none;" vertex="1" parent="1">
          <mxGeometry x="500" y="390" width="210" height="40" as="geometry" />
        </mxCell>
        <mxCell id="oBUEAxmH5nwpYUDOAiNG-7" value="" style="outlineConnect=0;dashed=0;verticalLabelPosition=bottom;verticalAlign=top;align=center;html=1;shape=mxgraph.aws3.route_53;fillColor=#F58536;gradientColor=none;" vertex="1" parent="1">
          <mxGeometry x="160" y="307.5" width="70.5" height="85.5" as="geometry" />
        </mxCell>
        <mxCell id="oBUEAxmH5nwpYUDOAiNG-8" value="Route53" style="text;html=1;align=center;verticalAlign=middle;resizable=0;points=[];autosize=1;strokeColor=none;fillColor=none;" vertex="1" parent="1">
          <mxGeometry x="160.5" y="390" width="70" height="30" as="geometry" />
        </mxCell>
        <mxCell id="oBUEAxmH5nwpYUDOAiNG-9" value="user" style="shape=image;html=1;verticalAlign=top;verticalLabelPosition=bottom;labelBackgroundColor=#ffffff;imageAspect=0;aspect=fixed;image=https://cdn4.iconfinder.com/data/icons/game-of-thrones-4/64/game_of_thrones_game_thrones_series_character_avatar_jon_snow-128.png" vertex="1" parent="1">
          <mxGeometry x="10" y="170" width="50" height="50" as="geometry" />
        </mxCell>
        <mxCell id="oBUEAxmH5nwpYUDOAiNG-10" value="" style="image;aspect=fixed;perimeter=ellipsePerimeter;html=1;align=center;shadow=0;dashed=0;spacingTop=3;image=img/lib/active_directory/internet_cloud.svg;" vertex="1" parent="1">
          <mxGeometry x="84.72" y="260" width="80.56" height="50.75" as="geometry" />
        </mxCell>
        <mxCell id="oBUEAxmH5nwpYUDOAiNG-11" value="" style="edgeStyle=orthogonalEdgeStyle;html=1;endArrow=block;elbow=vertical;startArrow=block;startFill=1;endFill=1;strokeColor=#545B64;rounded=0;" edge="1" parent="1" source="oBUEAxmH5nwpYUDOAiNG-10">
          <mxGeometry width="100" relative="1" as="geometry">
            <mxPoint x="110" y="358.5" as="sourcePoint" />
            <mxPoint x="210" y="358.5" as="targetPoint" />
            <Array as="points">
              <mxPoint x="210" y="290" />
            </Array>
          </mxGeometry>
        </mxCell>
        <mxCell id="oBUEAxmH5nwpYUDOAiNG-12" value="" style="sketch=0;points=[[0,0,0],[0.25,0,0],[0.5,0,0],[0.75,0,0],[1,0,0],[0,1,0],[0.25,1,0],[0.5,1,0],[0.75,1,0],[1,1,0],[0,0.25,0],[0,0.5,0],[0,0.75,0],[1,0.25,0],[1,0.5,0],[1,0.75,0]];outlineConnect=0;fontColor=#232F3E;gradientColor=#945DF2;gradientDirection=north;fillColor=#5A30B5;strokeColor=#ffffff;dashed=0;verticalLabelPosition=bottom;verticalAlign=top;align=center;html=1;fontSize=12;fontStyle=0;aspect=fixed;shape=mxgraph.aws4.resourceIcon;resIcon=mxgraph.aws4.cloudfront;" vertex="1" parent="1">
          <mxGeometry x="347" y="315" width="78" height="78" as="geometry" />
        </mxCell>
        <mxCell id="oBUEAxmH5nwpYUDOAiNG-13" value="" style="edgeStyle=orthogonalEdgeStyle;html=1;endArrow=block;elbow=vertical;startArrow=block;startFill=1;endFill=1;strokeColor=#545B64;rounded=0;" edge="1" parent="1">
          <mxGeometry width="100" relative="1" as="geometry">
            <mxPoint x="200" y="353.5" as="sourcePoint" />
            <mxPoint x="370" y="353.5" as="targetPoint" />
          </mxGeometry>
        </mxCell>
        <mxCell id="oBUEAxmH5nwpYUDOAiNG-16" value="" style="edgeStyle=orthogonalEdgeStyle;html=1;endArrow=block;elbow=vertical;startArrow=block;startFill=1;endFill=1;strokeColor=#545B64;rounded=0;" edge="1" parent="1" target="oBUEAxmH5nwpYUDOAiNG-10">
          <mxGeometry width="100" relative="1" as="geometry">
            <mxPoint x="40" y="194.5" as="sourcePoint" />
            <mxPoint x="140" y="194.5" as="targetPoint" />
          </mxGeometry>
        </mxCell>
      </root>
    </mxGraphModel>
  </diagram>
</mxfile>
